<svg width="123" height="37" viewBox="0 0 123 37" fill="none" xmlns="http://www.w3.org/2000/svg">
<path d="M27.2233 5.28613C25.4794 8.57823 23.8152 17.0309 31.1097 24.5049C33.7505 21.628 36.6703 13.7566 27.2233 5.28613Z" fill="black"/>
<path d="M33.0887 32.1922C31.9257 28.3687 33.9544 18.959 50.8558 8.53833C49.6067 16.7038 44.2012 32.1922 33.0887 32.1922Z" fill="black"/>
<path d="M29.1523 33.2045C10.5296 35.2909 -0.373246 14.6061 0.252769 3.32202C2.03987 3.62166 11.6194 7.32961 21.1609 16.7574C30.233 27.6069 32.9387 32.7804 29.1523 33.2045Z" fill="black"/>
<path d="M70.2283 21.0938C70.2283 22.4563 69.7244 23.4923 68.7168 24.2019C67.7233 24.8973 66.3679 25.245 64.6507 25.245H62.8199V31.5251H60.7549V17.4322H65.3319C66.7653 17.4322 67.9362 17.7586 68.8445 18.4115C69.767 19.0643 70.2283 19.9584 70.2283 21.0938ZM62.8199 24.6277H64.7145C65.3816 24.6277 65.9493 24.5 66.4176 24.2445C66.9002 23.989 67.2479 23.6626 67.4608 23.2652C67.8439 22.5556 68.0355 21.8673 68.0355 21.2002C68.0355 20.8738 67.9504 20.4835 67.7801 20.0294C67.4395 19.0927 66.7369 18.4824 65.6725 18.1986C64.6507 18.1986 63.6998 18.3192 62.8199 18.5605V24.6277ZM73.4016 16.9851V31.5251H71.6134V16.9851H73.4016ZM80.6299 29.2686V27.0759C79.6081 27.1468 78.7707 27.3739 78.1179 27.7571C77.4651 28.1403 77.1386 28.5519 77.1386 28.9918C77.1386 29.4318 77.2522 29.815 77.4792 30.1414C77.7063 30.4536 77.9973 30.6736 78.3521 30.8013C78.8204 30.7162 79.3172 30.482 79.8423 30.0988C80.3674 29.7156 80.6299 29.4389 80.6299 29.2686ZM82.3756 28.6938C82.3756 29.7014 82.7446 30.4678 83.4826 30.9929L82.3756 31.8019L80.6512 30.2478C79.53 31.2697 78.494 31.7806 77.5431 31.7806C76.9187 31.7806 76.3793 31.5819 75.9252 31.1845C75.4852 30.7871 75.2652 30.2904 75.2652 29.6943C75.2652 29.0841 75.4427 28.5802 75.7975 28.1829C76.1665 27.7855 76.649 27.4803 77.2451 27.2675C78.2669 26.8843 79.3952 26.643 80.6299 26.5436V24.5425C80.6299 23.3646 79.9487 22.7756 78.5862 22.7756C77.8057 22.7756 76.8832 22.9459 75.8187 23.2865L75.6272 22.7543C75.911 22.5272 76.4006 22.286 77.0961 22.0305C77.8057 21.775 78.4798 21.6473 79.1185 21.6473C79.7571 21.6473 80.2893 21.7325 80.7151 21.9028C81.1551 22.0731 81.4744 22.2647 81.6731 22.4776C81.886 22.6904 82.0492 22.9814 82.1627 23.3504C82.2762 23.7194 82.3401 24.0103 82.3543 24.2232C82.3685 24.4361 82.3756 24.7199 82.3756 25.0747V28.6938ZM87.0272 23.2652C87.6233 22.6975 88.1413 22.286 88.5812 22.0305C89.0354 21.775 89.5676 21.6473 90.1779 21.6473C90.7881 21.6473 91.3487 21.8886 91.8597 22.3711C92.3848 22.8536 92.6473 23.6839 92.6473 24.8619V31.5251H90.8378V25.0747C90.8378 24.3793 90.7101 23.8613 90.4546 23.5207C90.2134 23.1659 89.7876 22.9885 89.1773 22.9885C88.5812 22.9885 87.8858 23.3859 87.091 24.1806V31.5251H85.2815V24.8406C85.2815 23.8755 84.9196 23.102 84.1958 22.5201L85.2815 21.7112L87.0272 23.2652ZM97.5047 29.6518C97.5047 30.0775 97.5898 30.3969 97.7601 30.6097C97.9304 30.8226 98.2143 30.9291 98.6117 30.9291C99.009 30.9291 99.4845 30.8226 100.038 30.6097V31.2058C99.2148 31.589 98.4768 31.7806 97.824 31.7806C97.1711 31.7806 96.6531 31.6032 96.2699 31.2484C95.9009 30.8794 95.7164 30.3117 95.7164 29.5453V22.6691L93.9921 22.3285V21.9028H95.7164V21.1364L97.5047 19.8378V21.9028H100.038V22.6691H97.5047V29.6518ZM108.474 21.9028H109.283L105.643 31.8445C105.174 33.1502 104.472 34.2004 103.535 34.9952C102.598 35.7899 101.569 36.1944 100.448 36.2086L100.661 35.1442C102.577 35.0732 104.067 33.8314 105.132 31.4187L100.81 21.9028H102.705L105.962 29.1196L108.474 21.9028ZM110.36 17.1129H112.084V18.603L111.467 22.3498H110.956L110.36 18.603V17.1129ZM118.339 26.2243L122.15 31.5251H120.042L117.296 27.5016L114.358 31.5251H113.336L116.87 27.0333L113.4 21.9028H115.508L117.935 25.7773L120.787 21.9028H121.83L118.339 26.2243Z" fill="black"/>
</svg>
